<mxfile host="app.diagrams.net" modified="2021-08-17T09:00:19.586Z" agent="5.0 (Macintosh)" etag="ljZF3Qlf2CJeyofnfP7I" version="14.9.7" type="github">
  <diagram name="Page-1" id="2ca16b54-16f6-2749-3443-fa8db7711227">
    <mxGraphModel dx="946" dy="640" grid="1" gridSize="10" guides="1" tooltips="1" connect="1" arrows="1" fold="1" page="1" pageScale="1" pageWidth="1100" pageHeight="850" background="none" math="0" shadow="0">
      <root>
        <mxCell id="0" />
        <mxCell id="1" parent="0" />
        <mxCell id="Hm6aeHfuPzpVKwr9Rmps-9" value="" style="rounded=0;whiteSpace=wrap;html=1;" vertex="1" parent="1">
          <mxGeometry x="371.75" y="230" width="148.25" height="180" as="geometry" />
        </mxCell>
        <mxCell id="Hm6aeHfuPzpVKwr9Rmps-7" value="" style="aspect=fixed;html=1;points=[];align=center;image;fontSize=12;image=img/lib/azure2/compute/Virtual_Machine.svg;" vertex="1" parent="1">
          <mxGeometry x="430" y="280" width="53.91" height="50" as="geometry" />
        </mxCell>
      </root>
    </mxGraphModel>
  </diagram>
</mxfile>
